<svg width="34" height="34" viewBox="0 0 34 34" fill="none" xmlns="http://www.w3.org/2000/svg">
<path d="M0.508362 2.90365C0.50838 2.39729 0.647684 1.90068 0.911036 1.46814C1.17439 1.03561 1.55164 0.683804 2.00154 0.451214C2.45144 0.218624 2.95666 0.114204 3.46192 0.149377C3.96719 0.18455 4.45306 0.35796 4.86637 0.65064L24.1985 14.3537C24.5576 14.6076 24.8509 14.9435 25.0539 15.3336C25.2569 15.7236 25.3638 16.1565 25.3657 16.5962C25.3676 17.0359 25.2644 17.4697 25.0648 17.8615C24.8651 18.2533 24.5747 18.5918 24.2178 18.8487L4.8857 32.7561C4.47328 33.0535 3.98674 33.2313 3.4797 33.2699C2.97265 33.3085 2.4648 33.2063 2.0121 32.9748C1.55941 32.7432 1.17946 32.3912 0.914126 31.9575C0.648792 31.5238 0.508379 31.0253 0.508362 30.5169V2.90365ZM33.6491 1.51761C33.6491 1.15147 33.5036 0.80033 33.2447 0.541431C32.9857 0.282533 32.6345 0.137085 32.2683 0.137085C31.902 0.137085 31.5508 0.282533 31.2918 0.541431C31.0329 0.80033 30.8874 1.15147 30.8874 1.51761V31.8891C30.8874 32.2553 31.0329 32.6064 31.2918 32.8653C31.5508 33.1242 31.902 33.2696 32.2683 33.2696C32.6345 33.2696 32.9857 33.1242 33.2447 32.8653C33.5036 32.6064 33.6491 32.2553 33.6491 31.8891V1.51761Z" fill="#BAA8ED"/>
</svg>
