<svg width="34" height="34" viewBox="0 0 34 34" fill="none" xmlns="http://www.w3.org/2000/svg">
<path d="M33.2875 2.90365C33.2875 2.39729 33.1482 1.90068 32.8849 1.46814C32.6215 1.03561 32.2443 0.683804 31.7944 0.451214C31.3445 0.218624 30.8392 0.114204 30.334 0.149377C29.8287 0.18455 29.3428 0.35796 28.9295 0.65064L9.59742 14.3537C9.23831 14.6076 8.94504 14.9435 8.74201 15.3336C8.53899 15.7236 8.43209 16.1565 8.43019 16.5962C8.4283 17.0359 8.53148 17.4697 8.73114 17.8615C8.9308 18.2533 9.22117 18.5918 9.57808 18.8487L28.9102 32.7561C29.3226 33.0535 29.8092 33.2313 30.3162 33.2699C30.8232 33.3085 31.3311 33.2063 31.7838 32.9748C32.2365 32.7432 32.6164 32.3912 32.8818 31.9575C33.1471 31.5238 33.2875 31.0253 33.2875 30.5169V2.90365ZM0.146778 1.51761C0.146778 1.15147 0.292259 0.80033 0.551224 0.541431C0.810184 0.282533 1.16142 0.137085 1.52764 0.137085C1.89387 0.137085 2.2451 0.282533 2.50406 0.541431C2.76303 0.80033 2.90851 1.15147 2.90851 1.51761V31.8891C2.90851 32.2553 2.76303 32.6064 2.50406 32.8653C2.2451 33.1242 1.89387 33.2696 1.52764 33.2696C1.16142 33.2696 0.810184 33.1242 0.551224 32.8653C0.292259 32.6064 0.146778 32.2553 0.146778 31.8891V1.51761Z" fill="#BAA8ED"/>
</svg>
