<svg width="41" height="37" viewBox="0 0 41 37" fill="none" xmlns="http://www.w3.org/2000/svg">
<path d="M35.1321 23.3359C34.7125 22.9162 34.1432 22.6804 33.5497 22.6804C32.9562 22.6804 32.387 22.9162 31.9673 23.3359C31.5476 23.7556 31.3118 24.3248 31.3118 24.9183C31.3118 25.5119 31.5476 26.0811 31.9673 26.5008L32.6136 27.1471H29.0922C26.7278 27.1471 24.4602 26.2078 22.7883 24.5359C21.1164 22.864 20.1771 20.5965 20.1771 18.232C20.1771 15.8676 21.1164 13.6 22.7883 11.9282C24.4602 10.2563 26.7278 9.31699 29.0922 9.31699H32.6359L31.9673 9.96333C31.7584 10.1705 31.5926 10.417 31.4794 10.6886C31.3663 10.9602 31.308 11.2515 31.308 11.5458C31.308 11.84 31.3663 12.1313 31.4794 12.4029C31.5926 12.6745 31.7584 12.921 31.9673 13.1282C32.1756 13.3347 32.4225 13.4982 32.6941 13.6091C32.9656 13.72 33.2564 13.7762 33.5497 13.7745C33.843 13.7762 34.1338 13.72 34.4054 13.6091C34.6769 13.4982 34.9239 13.3347 35.1321 13.1282L39.5897 8.67065C39.7962 8.4624 39.9597 8.21541 40.0706 7.94387C40.1815 7.67232 40.2377 7.38155 40.236 7.08823C40.2377 6.79491 40.1815 6.50414 40.0706 6.23259C39.9597 5.96105 39.7962 5.71406 39.5897 5.50581L35.1321 1.04828C34.9243 0.840476 34.6776 0.675636 34.4061 0.563172C34.1346 0.450707 33.8436 0.392822 33.5497 0.392822C32.9562 0.392822 32.387 0.628599 31.9673 1.04828C31.5476 1.46797 31.3118 2.03718 31.3118 2.6307C31.3118 3.22423 31.5476 3.79344 31.9673 4.21313L32.6136 4.85947H29.0922C26.8841 4.86108 24.7108 5.40945 22.7663 6.4556C20.8217 7.50176 19.1665 9.01315 17.9484 10.8548C16.7303 9.01315 15.075 7.50176 13.1305 6.4556C11.186 5.40945 9.01266 4.86108 6.80457 4.85947H2.34705C1.75594 4.85947 1.18905 5.09428 0.771075 5.51226C0.353101 5.93023 0.118286 6.49713 0.118286 7.08823C0.118286 7.67933 0.353101 8.24623 0.771075 8.6642C1.18905 9.08218 1.75594 9.31699 2.34705 9.31699H6.80457C9.16899 9.31699 11.4366 10.2563 13.1085 11.9282C14.7804 13.6 15.7196 15.8676 15.7196 18.232C15.7196 20.5965 14.7804 22.864 13.1085 24.5359C11.4366 26.2078 9.16899 27.1471 6.80457 27.1471H2.34705C1.75594 27.1471 1.18905 27.3819 0.771075 27.7999C0.353101 28.2179 0.118286 28.7847 0.118286 29.3759C0.118286 29.967 0.353101 30.5339 0.771075 30.9518C1.18905 31.3698 1.75594 31.6046 2.34705 31.6046H6.80457C9.01266 31.603 11.186 31.0546 13.1305 30.0085C15.075 28.9623 16.7303 27.4509 17.9484 25.6092C19.1665 27.4509 20.8217 28.9623 22.7663 30.0085C24.7108 31.0546 26.8841 31.603 29.0922 31.6046H32.6359L31.9673 32.251C31.7584 32.4582 31.5926 32.7047 31.4794 32.9762C31.3663 33.2478 31.308 33.5392 31.308 33.8334C31.308 34.1276 31.3663 34.4189 31.4794 34.6905C31.5926 34.9621 31.7584 35.2086 31.9673 35.4158C32.1756 35.6224 32.4225 35.7858 32.6941 35.8967C32.9656 36.0076 33.2564 36.0638 33.5497 36.0621C33.843 36.0638 34.1338 36.0076 34.4054 35.8967C34.6769 35.7858 34.9239 35.6224 35.1321 35.4158L39.5897 30.9583C39.7962 30.75 39.9597 30.503 40.0706 30.2315C40.1815 29.9599 40.2377 29.6692 40.236 29.3759C40.2377 29.0825 40.1815 28.7918 40.0706 28.5202C39.9597 28.2487 39.7962 28.0017 39.5897 27.7934L35.1321 23.3359Z" fill="#BAA8ED"/>
</svg>
